<?xml version="1.0" standalone="no"?>
<!DOCTYPE svg PUBLIC "-//W3C//DTD SVG 20010904//EN"
 "http://www.w3.org/TR/2001/REC-SVG-20010904/DTD/svg10.dtd">
<svg version="1.0" xmlns="http://www.w3.org/2000/svg"
 width="143.000000pt" height="41.000000pt" viewBox="0 0 143.000000 41.000000"
 preserveAspectRatio="xMidYMid meet">
<metadata>
Created by potrace 1.10, written by Peter Selinger 2001-2011
</metadata>
<g transform="translate(0.000000,41.000000) scale(0.050000,-0.050000)"
fill="#2b2b2b" stroke="none">
<path d="M2400 450 c0 -351 2 -370 38 -370 35 0 39 19 45 209 8 230 22 261
128 282 128 26 169 -42 169 -282 0 -196 3 -209 40 -209 53 0 60 363 10 460
-55 107 -221 139 -306 59 l-44 -41 0 131 c0 118 -4 131 -40 131 -39 0 -40 -13
-40 -370z"/>
<path d="M1300 684 c-39 -31 -42 -43 -22 -80 29 -55 70 -58 56 -4 -13 51 25
76 50 33 23 -43 147 -45 163 -3 18 47 53 35 53 -17 0 -57 71 -125 122 -117 43
7 54 -46 13 -61 -31 -12 -30 -140 2 -151 39 -13 26 -67 -15 -60 -51 8 -122
-60 -122 -117 0 -52 -49 -65 -67 -17 -16 41 -126 39 -149 -3 -22 -38 -67 -19
-52 22 18 47 -29 54 -54 8 -38 -72 70 -149 122 -87 32 38 78 38 121 -1 46 -42
139 -2 139 60 0 52 36 91 71 78 49 -19 100 88 62 130 -41 45 -42 80 -2 124 40
44 6 144 -46 136 -52 -9 -85 19 -85 71 0 65 -92 106 -139 63 -43 -39 -89 -39
-121 -1 -32 39 -46 38 -100 -6z"/>
<path d="M0 628 c0 -7 38 -133 84 -281 109 -351 134 -355 226 -37 l64 219 33
-114 c18 -63 47 -165 65 -226 54 -191 95 -154 198 176 84 273 85 275 40 275
-40 0 -50 -23 -102 -220 -31 -121 -62 -220 -68 -220 -5 0 -36 99 -67 220 -47
180 -64 220 -94 220 -37 0 -41 -11 -144 -366 -28 -98 -37 -84 -104 161 -46
167 -63 205 -93 205 -21 0 -38 -5 -38 -12z"/>
<path d="M1000 600 c-16 -29 -34 -37 -67 -29 -55 14 -104 -35 -85 -84 8 -20
-2 -43 -28 -61 -22 -16 -40 -41 -40 -56 0 -15 18 -40 40 -56 26 -18 36 -41 28
-61 -19 -49 30 -98 85 -84 33 8 51 0 67 -29 28 -52 93 -51 121 1 15 29 33 37
61 28 53 -17 102 26 87 76 -9 26 1 48 29 68 53 37 53 77 0 114 -28 20 -38 42
-29 68 15 50 -34 93 -87 76 -28 -9 -46 -1 -61 28 -28 52 -93 53 -121 1z m80
-37 c0 -28 93 -62 114 -41 12 12 19 -4 19 -44 0 -35 15 -74 32 -87 29 -21 29
-25 0 -43 -18 -12 -32 -48 -32 -85 0 -42 -6 -58 -19 -45 -22 22 -92 -6 -119
-46 -11 -16 -19 -16 -30 0 -31 45 -97 68 -125 42 -21 -19 -23 -17 -13 12 13
38 -16 113 -55 139 -16 10 -16 14 0 15 31 0 69 93 55 135 -10 27 -7 30 13 12
27 -25 120 3 120 36 0 9 9 17 20 17 11 0 20 -8 20 -17z"/>
<path d="M971 436 c-41 -59 -39 -88 9 -136 68 -68 200 -22 200 70 0 95 -154
143 -209 66z m117 -8 c39 -15 42 -75 5 -106 -16 -12 -43 -17 -60 -10 -39 14
-44 100 -8 115 14 5 27 11 28 11 2 1 18 -3 35 -10z"/>
<path d="M1955 609 c-120 -66 -98 -211 40 -259 200 -69 241 -111 175 -178 -64
-63 -210 -18 -210 65 0 12 -18 23 -40 23 -57 0 -52 -70 9 -131 108 -108 351
-39 351 100 0 83 -129 170 -253 171 -40 0 -72 58 -59 109 23 93 181 92 204 0
16 -62 88 -68 88 -8 0 114 -178 177 -305 108z"/>
<path d="M1384 489 c-61 -43 -37 -71 37 -43 82 31 129 0 129 -86 0 -86 -47
-117 -129 -86 -77 29 -98 -2 -32 -45 61 -40 133 -27 190 35 118 126 -54 323
-195 225z"/>
</g>
</svg>
